REM DIRINDEX 1\2\4,1\2\5,1\3\6,1\3\7
REM DIRNAME folder01,folder02,folder03,folder04,folder05,folder06,folder07
TITLE ""
FILE "grammar_ch03.mp3" MP3
  TRACK 01 AUDIO
    TITLE "5:cjc072_173"
    INDEX 01 00:00:00
  TRACK 02 AUDIO
    TITLE "5:cjc072_174"
    INDEX 01 00:01:58
  TRACK 03 AUDIO
    TITLE "4:cjc072_175"
    INDEX 01 00:03:25
  TRACK 04 AUDIO
    TITLE "0:"
    INDEX 01 00:10:55
  TRACK 05 AUDIO
    TITLE "7:cjc072_176"
    INDEX 01 00:12:18
  TRACK 06 AUDIO
    TITLE "7:cjc072_177"
    INDEX 01 00:14:25
  TRACK 07 AUDIO
    TITLE "6:cjc072_178"
    INDEX 01 00:15:66
  TRACK 08 AUDIO
    TITLE "0:"
    INDEX 01 00:22:58
  TRACK 09 AUDIO
    TITLE "5:cjc072_179"
    INDEX 01 00:24:24
  TRACK 10 AUDIO
    TITLE "4:cjc072_180"
    INDEX 01 00:25:64
  TRACK 11 AUDIO
    TITLE "0:"
    INDEX 01 00:32:17
  TRACK 12 AUDIO
    TITLE "7:cjc072_181"
    INDEX 01 00:33:56
  TRACK 13 AUDIO
    TITLE "6:cjc072_182"
    INDEX 01 00:35:17
  TRACK 14 AUDIO
    TITLE "0:"
    INDEX 01 00:40:58
  TRACK 15 AUDIO
    TITLE "5:cjc072_183"
    INDEX 01 00:42:25
  TRACK 16 AUDIO
    TITLE "4:cjc072_184"
    INDEX 01 00:43:74
  TRACK 17 AUDIO
    TITLE "0:"
    INDEX 01 00:52:00
  TRACK 18 AUDIO
    TITLE "7:cjc072_185"
    INDEX 01 00:53:39
  TRACK 19 AUDIO
    TITLE "6:cjc072_186"
    INDEX 01 00:55:01
  TRACK 20 AUDIO
    TITLE "0:"
    INDEX 01 01:02:38
  TRACK 21 AUDIO
    TITLE "5:cjc072_187"
    INDEX 01 01:04:03
  TRACK 22 AUDIO
    TITLE "4:cjc072_188"
    INDEX 01 01:05:52
  TRACK 23 AUDIO
    TITLE "0:"
    INDEX 01 01:13:38
  TRACK 24 AUDIO
    TITLE "7:cjc072_189"
    INDEX 01 01:15:01
  TRACK 25 AUDIO
    TITLE "6:cjc072_190"
    INDEX 01 01:16:40
  TRACK 26 AUDIO
    TITLE "0:"
    INDEX 01 01:23:56
  TRACK 27 AUDIO
    TITLE "5:cjc072_191"
    INDEX 01 01:25:19
  TRACK 28 AUDIO
    TITLE "4:cjc072_192"
    INDEX 01 01:26:66
  TRACK 29 AUDIO
    TITLE "0:"
    INDEX 01 01:33:54
  TRACK 30 AUDIO
    TITLE "7:cjc072_193"
    INDEX 01 01:35:16
  TRACK 31 AUDIO
    TITLE "6:cjc072_194"
    INDEX 01 01:36:64
  TRACK 32 AUDIO
    TITLE "0:"
    INDEX 01 01:42:65
  TRACK 33 AUDIO
    TITLE "5:cjc072_195"
    INDEX 01 01:44:28
  TRACK 34 AUDIO
    TITLE "4:cjc072_196"
    INDEX 01 01:46:00
  TRACK 35 AUDIO
    TITLE "0:"
    INDEX 01 01:54:41
  TRACK 36 AUDIO
    TITLE "7:cjc072_197"
    INDEX 01 01:56:06
  TRACK 37 AUDIO
    TITLE "6:cjc072_198"
    INDEX 01 01:57:49
  TRACK 38 AUDIO
    TITLE "0:"
    INDEX 01 02:05:23
  TRACK 39 AUDIO
    TITLE "5:cjc072_199"
    INDEX 01 02:06:65
  TRACK 40 AUDIO
    TITLE "4:cjc072_200"
    INDEX 01 02:08:37
  TRACK 41 AUDIO
    TITLE "0:"
    INDEX 01 02:15:37
  TRACK 42 AUDIO
    TITLE "7:cjc072_201"
    INDEX 01 02:17:02
  TRACK 43 AUDIO
    TITLE "6:cjc072_202"
    INDEX 01 02:18:41
  TRACK 44 AUDIO
    TITLE "0:"
    INDEX 01 02:25:14
  TRACK 45 AUDIO
    TITLE "5:cjc072_203"
    INDEX 01 02:26:56
  TRACK 46 AUDIO
    TITLE "4:cjc072_204"
    INDEX 01 02:28:16
  TRACK 47 AUDIO
    TITLE "0:"
    INDEX 01 02:35:02
  TRACK 48 AUDIO
    TITLE "7:cjc072_205"
    INDEX 01 02:36:41
  TRACK 49 AUDIO
    TITLE "6:cjc072_206"
    INDEX 01 02:37:74
  TRACK 50 AUDIO
    TITLE "0:"
    INDEX 01 02:44:17
  TRACK 51 AUDIO
    TITLE "5:cjc072_207"
    INDEX 01 02:45:59
  TRACK 52 AUDIO
    TITLE "4:cjc072_208"
    INDEX 01 02:47:27
  TRACK 53 AUDIO
    TITLE "0:"
    INDEX 01 02:53:65
  TRACK 54 AUDIO
    TITLE "7:cjc072_209"
    INDEX 01 02:55:30
  TRACK 55 AUDIO
    TITLE "6:cjc072_210"
    INDEX 01 02:56:67
  TRACK 56 AUDIO
    TITLE "0:"
    INDEX 01 03:03:16
  TRACK 57 AUDIO
    TITLE "5:cjc072_211"
    INDEX 01 03:04:57
  TRACK 58 AUDIO
    TITLE "4:cjc072_212"
    INDEX 01 03:06:17
  TRACK 59 AUDIO
    TITLE "0:"
    INDEX 01 03:12:41
  TRACK 60 AUDIO
    TITLE "7:cjc072_213"
    INDEX 01 03:14:06
  TRACK 61 AUDIO
    TITLE "6:cjc072_214"
    INDEX 01 03:15:45
  TRACK 62 AUDIO
    TITLE "0:"
    INDEX 01 03:21:47
  TRACK 63 AUDIO
    TITLE "5:cjc072_215"
    INDEX 01 03:23:13
  TRACK 64 AUDIO
    TITLE "4:cjc072_216"
    INDEX 01 03:24:60
  TRACK 65 AUDIO
    TITLE "0:"
    INDEX 01 03:30:62
  TRACK 66 AUDIO
    TITLE "7:cjc072_217"
    INDEX 01 03:32:36
  TRACK 67 AUDIO
    TITLE "6:cjc072_218"
    INDEX 01 03:34:17
  TRACK 68 AUDIO
    TITLE "0:"
    INDEX 01 03:40:25
  TRACK 69 AUDIO
    TITLE "5:cjc072_219"
    INDEX 01 03:41:70
  TRACK 70 AUDIO
    TITLE "4:cjc072_220"
    INDEX 01 03:43:43
  TRACK 71 AUDIO
    TITLE "0:"
    INDEX 01 03:51:21
  TRACK 72 AUDIO
    TITLE "7:cjc072_221"
    INDEX 01 03:52:60
  TRACK 73 AUDIO
    TITLE "6:cjc072_222"
    INDEX 01 03:54:31
  TRACK 74 AUDIO
    TITLE "0:"
    INDEX 01 04:01:59
  TRACK 75 AUDIO
    TITLE "5:cjc072_223"
    INDEX 01 04:03:22
  TRACK 76 AUDIO
    TITLE "4:cjc072_224"
    INDEX 01 04:05:06
  TRACK 77 AUDIO
    TITLE "0:"
    INDEX 01 04:10:67
  TRACK 78 AUDIO
    TITLE "7:cjc072_225"
    INDEX 01 04:12:31
  TRACK 79 AUDIO
    TITLE "6:cjc072_226"
    INDEX 01 04:14:10
  TRACK 80 AUDIO
    TITLE "0:"
    INDEX 01 04:19:64
  TRACK 81 AUDIO
    TITLE "5:cjc072_227"
    INDEX 01 04:21:30
  TRACK 82 AUDIO
    TITLE "4:cjc072_228"
    INDEX 01 04:23:19
  TRACK 83 AUDIO
    TITLE "0:"
    INDEX 01 04:28:61
  TRACK 84 AUDIO
    TITLE "7:cjc072_229"
    INDEX 01 04:30:25
  TRACK 85 AUDIO
    TITLE "6:cjc072_230"
    INDEX 01 04:32:04
  TRACK 86 AUDIO
    TITLE "0:"
    INDEX 01 04:37:35
